# xmcd
#
# Track frame offsets:
#	150
#	13272
#	26546
#	37476
#	50272
#	60617
#	70740
#	80181
#	92924
#	105989
#	117436
#	129886
#	143122
#	155770
#	167476
#	179369
#	190938
#	202474
#	212381
#	223308
#	234971
#	243965
#	257261
#	268938
#	282708
#
# Disc length: 4130 seconds
#
# Revision: 0
# Processed by: cddbd v1.5.2PL0 Copyright (c) Steve Scherf et al.
# Submitted via: EasyCDDAExtractor 16.1.0.1
#
DISCID=7b102019
DTITLE=Various Artist - Les Triomphes du rhythm'n'blues, Volume 8: chanteurs 
DTITLE=#1
DYEAR=2004
DGENRE=
TTITLE0=Percy Mayfield - Please Send Me Someone to Love
TTITLE1=Percy Mayfield - Lost Love
TTITLE2=Percy Mayfield - Advice (For Men Only)
TTITLE3=Percy Mayfield - Cry Baby
TTITLE4=Percy Mayfield - I Dare You Baby
TTITLE5=Percy Mayfield - The Hunt Is On
TTITLE6=Percy Mayfield - Louisiana
TTITLE7=Percy Mayfield - The Bachelor Blues
TTITLE8=Jimmy McCracklin - Jimmy's Blues
TTITLE9=Jimmy McCracklin - Special for You
TTITLE10=Jimmy McCracklin - She's Gone
TTITLE11=Jimmy McCracklin - My Days Are Limited
TTITLE12=Jimmy McCracklin - She Felt Too Good
TTITLE13=Jimmy McCracklin - The Cheater
TTITLE14=Jimmy McCracklin - Share and Share Alike
TTITLE15=Jimmy McCracklin - Pleasin' Papa
TTITLE16=Jimmy Witherspoon - Two Little Girl
TTITLE17=Jimmy Witherspoon - Corn Whiskey
TTITLE18=Jimmy Witherspoon - It
TTITLE19=Jimmy Witherspoon - Lucille
TTITLE20=Jimmy Witherspoon - Foolish Prayer
TTITLE21=Jimmy Witherspoon - The Last Mile
TTITLE22=Jimmy Witherspoon - Destruction Blues
TTITLE23=Jimmy Witherspoon - Wee Baby Blues
TTITLE24=Jimmy Witherspoon - Ain't Nobody's Business
EXTD=
EXTT0=
EXTT1=
EXTT2=
EXTT3=
EXTT4=
EXTT5=
EXTT6=
EXTT7=
EXTT8=
EXTT9=
EXTT10=
EXTT11=
EXTT12=
EXTT13=
EXTT14=
EXTT15=
EXTT16=
EXTT17=
EXTT18=
EXTT19=
EXTT20=
EXTT21=
EXTT22=
EXTT23=
EXTT24=
PLAYORDER=
